<svg width="51" height="52" viewBox="0 0 51 52" fill="none"
		 xmlns="http://www.w3.org/2000/svg">
	<path
		d="M25.2636 13.4232C27.7021 13.4158 29.6842 15.3785 29.6916 17.8081C29.699 20.2377 27.729 22.2125 25.2905 22.2199C22.852 22.2274 20.8699 20.2646 20.8625 17.8351C20.8551 15.4055 22.8251 13.4307 25.2636 13.4232ZM25.3211 32.2733C31.5646 32.2543 38.1537 35.2921 38.1577 36.6326L38.1648 38.9365L12.5184 39.0147L12.5114 36.7108C12.5073 35.3704 19.0777 32.2924 25.3211 32.2733ZM25.2515 9.44376C20.6057 9.45793 16.8543 13.2185 16.8684 17.8472C16.8825 22.476 20.6568 26.2136 25.3026 26.1994C29.9484 26.1852 33.6998 22.4247 33.6857 17.7959C33.6716 13.1672 29.8973 9.42958 25.2515 9.44376ZM25.309 28.2939C19.6962 28.311 8.50027 31.1518 8.51727 36.723L8.53644 43.0064L42.171 42.9038L42.1519 36.6204C42.1349 31.0491 30.9218 28.2767 25.309 28.2939Z"
		fill="#EB537C"/>
</svg>
